<?xml version="1.0" encoding="UTF-8"?><svg id="Layer_1" xmlns="http://www.w3.org/2000/svg" xmlns:xlink="http://www.w3.org/1999/xlink" viewBox="0 0 1536 1024"><defs><style>.cls-1{fill:url(#linear-gradient-15);}.cls-2{fill:url(#linear-gradient-13);}.cls-3{fill:url(#linear-gradient-28);}.cls-4{fill:#ec2b2e;}.cls-5{fill:url(#linear-gradient-42);}.cls-6{fill:url(#linear-gradient-2);}.cls-7{fill:url(#linear-gradient-25);}.cls-8{fill:#030302;}.cls-9{fill:url(#linear-gradient-10);}.cls-10{fill:url(#linear-gradient-12);}.cls-11{fill:url(#linear-gradient-40);}.cls-12{fill:url(#linear-gradient-27);}.cls-13{fill:url(#linear-gradient-37);}.cls-14{fill:#fff;}.cls-15{fill:url(#linear-gradient-39);}.cls-16{fill:url(#linear-gradient-26);}.cls-17{fill:none;}.cls-18{fill:url(#linear-gradient-4);}.cls-19{fill:url(#linear-gradient-35);}.cls-20{fill:url(#linear-gradient-30);}.cls-21{fill:#302f2f;}.cls-22{fill:url(#linear-gradient-3);}.cls-23{fill:url(#linear-gradient-34);}.cls-24{fill:url(#linear-gradient-5);}.cls-25{fill:url(#linear-gradient-38);}.cls-26{fill:url(#linear-gradient-22);}.cls-27{fill:url(#linear-gradient-24);}.cls-28{fill:url(#linear-gradient-33);}.cls-29{fill:url(#linear-gradient-8);}.cls-30{fill:url(#linear-gradient-14);}.cls-31{fill:url(#linear-gradient-29);}.cls-32{fill:url(#linear-gradient-20);}.cls-33{fill:url(#linear-gradient-17);}.cls-34{fill:url(#linear-gradient-7);}.cls-35{fill:url(#linear-gradient-9);}.cls-36{fill:url(#linear-gradient-11);}.cls-37{fill:#a8a6a6;}.cls-38{fill:url(#linear-gradient-19);}.cls-39{fill:url(#linear-gradient-6);}.cls-40{fill:url(#linear-gradient-36);}.cls-41{fill:url(#linear-gradient-21);}.cls-42{fill:#fefefe;}.cls-43{fill:url(#linear-gradient-32);}.cls-44{fill:url(#linear-gradient-41);}.cls-45{fill:url(#linear-gradient-16);}.cls-46{fill:url(#linear-gradient);}.cls-47{fill:url(#linear-gradient-23);}.cls-48{fill:url(#linear-gradient-31);}.cls-49{fill:url(#linear-gradient-18);}</style><linearGradient id="linear-gradient" x1="603.44" y1="307.39" x2="755.15" y2="307.39" gradientUnits="userSpaceOnUse"><stop offset="0" stop-color="#f9f9f9"/><stop offset="1" stop-color="#e8e8e8"/></linearGradient><linearGradient id="linear-gradient-2" x1="498.82" y1="450.86" x2="993.96" y2="450.86" gradientUnits="userSpaceOnUse"><stop offset="0" stop-color="#c61a1d"/><stop offset=".01" stop-color="#bf181b"/><stop offset=".07" stop-color="#a71417"/><stop offset=".12" stop-color="#971115"/><stop offset=".19" stop-color="#8d0f13"/><stop offset=".27" stop-color="#8a0f13"/><stop offset=".55" stop-color="#ec151c"/><stop offset=".74" stop-color="#800b0e"/><stop offset=".82" stop-color="#850a0e"/><stop offset=".91" stop-color="#94070f"/><stop offset="1" stop-color="#a80510"/></linearGradient><linearGradient id="linear-gradient-3" x1="530.89" y1="444.26" x2="987.73" y2="441.34" gradientUnits="userSpaceOnUse"><stop offset="0" stop-color="#535253"/><stop offset=".02" stop-color="#474647"/><stop offset=".06" stop-color="#3b3a3b"/><stop offset=".12" stop-color="#333233"/><stop offset=".25" stop-color="#323132"/><stop offset=".55" stop-color="#565454"/><stop offset=".74" stop-color="#2a2a29"/><stop offset=".78" stop-color="#2f2f2e"/><stop offset=".82" stop-color="#3e3e3d"/><stop offset=".86" stop-color="#565655"/><stop offset=".88" stop-color="#656564"/><stop offset="1" stop-color="#1f1a1b"/></linearGradient><linearGradient id="linear-gradient-4" x1="755.15" y1="418.89" x2="967.57" y2="418.89" gradientUnits="userSpaceOnUse"><stop offset="0" stop-color="#e3e3e3"/><stop offset="1" stop-color="#8e8f8f"/></linearGradient><linearGradient id="linear-gradient-5" x1="578.01" y1="393.84" x2="634.97" y2="246.54" gradientUnits="userSpaceOnUse"><stop offset="0" stop-color="#d0d1d0"/><stop offset="1" stop-color="#e8e8e9"/></linearGradient><linearGradient id="linear-gradient-6" x1="854.99" y1="231.85" x2="955.2" y2="387.54" gradientUnits="userSpaceOnUse"><stop offset="0" stop-color="#b9b8b8"/><stop offset=".85" stop-color="#42403f"/><stop offset="1" stop-color="#e3e3e2"/></linearGradient><linearGradient id="linear-gradient-7" x1="873.81" y1="238.88" x2="909.41" y2="399.3" gradientUnits="userSpaceOnUse"><stop offset="0" stop-color="#cfcfcf"/><stop offset="1" stop-color="#666665"/></linearGradient><linearGradient id="linear-gradient-8" x1="731.33" y1="277.48" x2="839.7" y2="323.57" gradientUnits="userSpaceOnUse"><stop offset="0" stop-color="#e7e6e6"/><stop offset="1" stop-color="#cfcfcf"/></linearGradient><linearGradient id="linear-gradient-9" x1="802.54" y1="252.09" x2="828.7" y2="411.94" gradientUnits="userSpaceOnUse"><stop offset="0" stop-color="#cfcfcf"/><stop offset="1" stop-color="#c3c2c3"/></linearGradient><linearGradient id="linear-gradient-10" x1="529.87" y1="416.3" x2="755.15" y2="416.3" gradientUnits="userSpaceOnUse"><stop offset="0" stop-color="#ddd"/><stop offset="1" stop-color="#f6f7f6"/></linearGradient><linearGradient id="linear-gradient-11" x1="904.42" y1="438.08" x2="949.89" y2="426.87" gradientUnits="userSpaceOnUse"><stop offset="0" stop-color="#d0d1d1"/><stop offset="1" stop-color="#f6f7f6"/></linearGradient><linearGradient id="linear-gradient-12" x1="222.49" y1="564.46" x2="222.49" y2="519.68" gradientUnits="userSpaceOnUse"><stop offset="0" stop-color="#e9e9e8"/><stop offset="1" stop-color="#edecec"/></linearGradient><linearGradient id="linear-gradient-13" x1="156.68" x2="156.68" xlink:href="#linear-gradient-12"/><linearGradient id="linear-gradient-14" x1="189.48" y1="621.49" x2="189.48" y2="564.47" gradientUnits="userSpaceOnUse"><stop offset="0" stop-color="#b0b0af"/><stop offset="1" stop-color="#d4d4d4"/></linearGradient><linearGradient id="linear-gradient-15" x1="276.11" x2="276.11" xlink:href="#linear-gradient-12"/><linearGradient id="linear-gradient-16" x1="327.08" x2="327.08" xlink:href="#linear-gradient-12"/><linearGradient id="linear-gradient-17" x1="293.42" y1="619.5" x2="293.42" xlink:href="#linear-gradient-14"/><linearGradient id="linear-gradient-18" x1="402.68" y1="564.47" x2="402.68" y2="519.68" xlink:href="#linear-gradient-12"/><linearGradient id="linear-gradient-19" x1="402.8" y1="619.5" x2="402.8" xlink:href="#linear-gradient-14"/><linearGradient id="linear-gradient-20" x1="498.69" x2="498.69" xlink:href="#linear-gradient-12"/><linearGradient id="linear-gradient-21" x1="499.61" y1="619.5" x2="499.61" y2="564.46" xlink:href="#linear-gradient-14"/><linearGradient id="linear-gradient-22" x1="591.8" y1="619.5" x2="591.8" xlink:href="#linear-gradient-14"/><linearGradient id="linear-gradient-23" x1="590.8" y1="564.47" x2="590.8" y2="519.68" xlink:href="#linear-gradient-12"/><linearGradient id="linear-gradient-24" x1="721.15" y1="618.83" x2="721.15" y2="564.47" gradientUnits="userSpaceOnUse"><stop offset="0" stop-color="#ba141a"/><stop offset="1" stop-color="#d52028"/></linearGradient><linearGradient id="linear-gradient-25" x1="721.54" y1="564.47" x2="721.54" y2="519.66" gradientUnits="userSpaceOnUse"><stop offset="0" stop-color="#e23136"/><stop offset="1" stop-color="#dc1c24"/></linearGradient><linearGradient id="linear-gradient-26" x1="815.8" x2="815.8" xlink:href="#linear-gradient-25"/><linearGradient id="linear-gradient-27" x1="816.78" x2="816.78" xlink:href="#linear-gradient-24"/><linearGradient id="linear-gradient-28" x1="906.13" x2="906.13" y2="519.67" xlink:href="#linear-gradient-25"/><linearGradient id="linear-gradient-29" x1="907.04" y1="618.83" x2="907.04" xlink:href="#linear-gradient-24"/><linearGradient id="linear-gradient-30" x1="988.53" x2="988.53" y2="517.68" xlink:href="#linear-gradient-25"/><linearGradient id="linear-gradient-31" x1="989.72" y1="620.81" x2="989.72" xlink:href="#linear-gradient-24"/><linearGradient id="linear-gradient-32" x1="1071.56" x2="1071.56" y2="517.68" xlink:href="#linear-gradient-25"/><linearGradient id="linear-gradient-33" x1="1072.75" y1="620.81" x2="1072.75" xlink:href="#linear-gradient-24"/><linearGradient id="linear-gradient-34" x1="1165.54" y1="620.81" x2="1165.54" xlink:href="#linear-gradient-24"/><linearGradient id="linear-gradient-35" x1="1198.01" x2="1198.01" y2="519.67" xlink:href="#linear-gradient-25"/><linearGradient id="linear-gradient-36" x1="1133.27" x2="1133.27" y2="519.67" xlink:href="#linear-gradient-25"/><linearGradient id="linear-gradient-37" x1="1267.01" x2="1267.01" xlink:href="#linear-gradient-25"/><linearGradient id="linear-gradient-38" x1="1267.99" x2="1267.99" xlink:href="#linear-gradient-24"/><linearGradient id="linear-gradient-39" x1="1357.34" x2="1357.34" y2="519.67" xlink:href="#linear-gradient-25"/><linearGradient id="linear-gradient-40" x1="1358.25" y1="618.83" x2="1358.25" xlink:href="#linear-gradient-24"/><linearGradient id="linear-gradient-41" x1="894.82" y1="443.5" x2="978.89" y2="443.5" gradientUnits="userSpaceOnUse"><stop offset="0" stop-color="#363635"/><stop offset=".53" stop-color="#a8a6a6"/><stop offset="1" stop-color="#242020"/></linearGradient><linearGradient id="linear-gradient-42" x1="527.24" y1="436.81" x2="563.29" y2="436.81" gradientUnits="userSpaceOnUse"><stop offset="0" stop-color="#363635"/><stop offset=".53" stop-color="#747474"/><stop offset="1" stop-color="#242020"/></linearGradient></defs><rect x="77.72" y="407.23" width="1380.57" height="364.52" rx="59.59" ry="59.59"/><path class="cls-14" d="M1396.23,758.79H139.77c-27.07,0-49.09-22.02-49.09-49.09v-240.42c0-27.07,22.02-49.09,49.09-49.09h1256.47c27.07,0,49.09,22.02,49.09,49.09v240.42c0,27.07-22.02,49.09-49.09,49.09ZM139.77,429.92c-21.71,0-39.37,17.66-39.37,39.36v240.42c0,21.71,17.66,39.37,39.37,39.37h1256.47c21.71,0,39.36-17.66,39.36-39.37v-240.42c0-21.71-17.66-39.36-39.36-39.36H139.77Z"/><path class="cls-14" d="M399.89,690.67c0,3.89-.8,6.69-2.39,8.4-1.6,1.71-3.83,2.57-6.71,2.57s-5.11-.85-6.71-2.57c-1.6-1.71-2.39-4.51-2.39-8.4v-22.52h-9.45v22.87c0,5.99,1.63,10.6,4.9,13.82,3.27,3.23,7.8,4.84,13.59,4.84s10.33-1.61,13.59-4.84c3.27-3.23,4.9-7.83,4.9-13.82v-22.87h-9.33v22.52Z"/><polygon class="cls-14" points="431.27 675.85 444.34 675.85 444.34 708.99 453.79 708.99 453.79 675.85 466.85 675.85 466.85 668.15 431.27 668.15 431.27 675.85"/><rect class="cls-14" x="489.96" y="668.15" width="9.45" height="40.83"/><polygon class="cls-14" points="536.56 668.15 527.11 668.15 527.11 708.99 557.04 708.99 557.04 701.29 536.56 701.29 536.56 668.15"/><rect class="cls-14" x="580.37" y="668.15" width="9.45" height="40.83"/><polygon class="cls-14" points="612.92 675.85 625.99 675.85 625.99 708.99 635.44 708.99 635.44 675.85 648.5 675.85 648.5 668.15 612.92 668.15 612.92 675.85"/><polygon class="cls-14" points="697.04 668.15 686.11 686.28 675.22 668.15 665.19 668.15 681 694.43 681 708.99 690.45 708.99 690.45 694.53 706.31 668.15 697.04 668.15"/><path class="cls-14" d="M788.86,688.34c-1.4-.85-2.95-1.54-4.64-2.04s-3.38-.95-5.07-1.34-3.24-.78-4.64-1.17c-1.4-.39-2.53-.91-3.38-1.55-.85-.64-1.28-1.49-1.28-2.54,0-.89.25-1.68.76-2.36.5-.68,1.34-1.23,2.51-1.66,1.17-.43,2.66-.64,4.49-.64s3.69.26,5.6.79c1.91.52,3.81,1.33,5.72,2.42l2.92-7.17c-1.91-1.2-4.1-2.11-6.59-2.71s-5.02-.9-7.58-.9c-3.85,0-7.05.57-9.6,1.72-2.55,1.15-4.45,2.68-5.72,4.61-1.26,1.93-1.9,4.05-1.9,6.39,0,2.18.44,3.97,1.31,5.37.88,1.4,2.01,2.53,3.41,3.38,1.4.85,2.95,1.56,4.64,2.1s3.38,1,5.07,1.37c1.69.37,3.24.76,4.64,1.17s2.53.93,3.38,1.58c.85.64,1.28,1.51,1.28,2.6,0,.86-.27,1.61-.82,2.28-.55.66-1.39,1.18-2.54,1.55-1.15.37-2.65.55-4.52.55-2.45,0-4.87-.4-7.26-1.2-2.39-.8-4.46-1.82-6.21-3.06l-3.21,7.12c1.83,1.4,4.24,2.54,7.23,3.41s6.13,1.31,9.39,1.31c3.89,0,7.11-.58,9.65-1.75,2.55-1.17,4.46-2.7,5.75-4.61s1.92-4.01,1.92-6.3c0-2.14-.44-3.91-1.31-5.31s-2.01-2.53-3.41-3.38Z"/><polygon class="cls-14" points="827.47 691.95 846.43 691.95 846.43 684.6 827.47 684.6 827.47 675.74 848.94 675.74 848.94 668.15 818.08 668.15 818.08 708.99 849.7 708.99 849.7 701.4 827.47 701.4 827.47 691.95"/><path class="cls-14" d="M902.37,695.86c2.64-1.17,4.69-2.85,6.13-5.04,1.44-2.2,2.16-4.81,2.16-7.85s-.72-5.72-2.16-7.93-3.48-3.92-6.13-5.1c-2.64-1.19-5.79-1.78-9.45-1.78h-17.68v40.83h9.45v-11.38h8.23c.15,0,.29-.02.43-.02l7.85,11.39h10.21l-9.12-13.1s.06-.02.08-.03ZM898.93,677.72c1.44,1.24,2.16,2.99,2.16,5.25s-.72,3.96-2.16,5.22-3.62,1.9-6.53,1.9h-7.7v-14.23h7.7c2.92,0,5.09.62,6.53,1.87Z"/><polygon class="cls-14" points="953.41 697.32 940.99 668.15 930.78 668.15 948.4 708.99 957.73 708.99 975.4 668.15 966.01 668.15 953.41 697.32"/><rect class="cls-14" x="996.81" y="668.15" width="9.45" height="40.83"/><path class="cls-14" d="M1044.65,679.12c1.17-1.17,2.55-2.06,4.14-2.68s3.35-.93,5.25-.93c2.02,0,3.89.4,5.6,1.2,1.71.8,3.27,1.99,4.67,3.59l6.07-5.6c-1.94-2.37-4.35-4.17-7.2-5.4s-6.06-1.84-9.6-1.84c-3.19,0-6.13.52-8.81,1.54-2.68,1.03-5.03,2.5-7.03,4.41s-3.56,4.14-4.67,6.71c-1.11,2.57-1.66,5.39-1.66,8.46s.55,5.89,1.66,8.46c1.11,2.57,2.66,4.8,4.64,6.71s4.33,3.37,7.03,4.4,5.63,1.55,8.78,1.55c3.58,0,6.8-.62,9.65-1.87,2.86-1.24,5.26-3.05,7.2-5.42l-6.07-5.6c-1.4,1.63-2.96,2.85-4.67,3.65-1.71.8-3.58,1.2-5.6,1.2-1.91,0-3.66-.31-5.25-.93s-2.97-1.52-4.14-2.68c-1.17-1.17-2.07-2.55-2.71-4.14-.64-1.59-.96-3.36-.96-5.31s.32-3.71.96-5.31c.64-1.6,1.55-2.97,2.71-4.14Z"/><polygon class="cls-14" points="1104.15 691.95 1123.1 691.95 1123.1 684.6 1104.15 684.6 1104.15 675.74 1125.61 675.74 1125.61 668.15 1094.75 668.15 1094.75 708.99 1126.37 708.99 1126.37 701.4 1104.15 701.4 1104.15 691.95"/><path class="cls-14" d="M1181.35,691.72c-.88-1.4-2.01-2.53-3.41-3.38-1.4-.85-2.95-1.54-4.64-2.04s-3.38-.95-5.07-1.34-3.24-.78-4.64-1.17c-1.4-.39-2.53-.91-3.38-1.55-.85-.64-1.28-1.49-1.28-2.54,0-.89.25-1.68.76-2.36.5-.68,1.34-1.23,2.51-1.66,1.17-.43,2.66-.64,4.49-.64s3.69.26,5.6.79c1.91.52,3.81,1.33,5.72,2.42l2.92-7.17c-1.91-1.2-4.1-2.11-6.59-2.71s-5.02-.9-7.58-.9c-3.85,0-7.05.57-9.6,1.72-2.55,1.15-4.45,2.68-5.72,4.61-1.26,1.93-1.9,4.05-1.9,6.39,0,2.18.44,3.97,1.31,5.37.88,1.4,2.01,2.53,3.41,3.38,1.4.85,2.95,1.56,4.64,2.1s3.38,1,5.07,1.37c1.69.37,3.24.76,4.64,1.17s2.53.93,3.38,1.58c.85.64,1.28,1.51,1.28,2.6,0,.86-.27,1.61-.82,2.28-.55.66-1.39,1.18-2.54,1.55-1.15.37-2.65.55-4.52.55-2.45,0-4.87-.4-7.26-1.2-2.39-.8-4.46-1.82-6.21-3.06l-3.21,7.12c1.83,1.4,4.24,2.54,7.23,3.41s6.13,1.31,9.39,1.31c3.89,0,7.11-.58,9.65-1.75,2.55-1.17,4.46-2.7,5.75-4.61s1.92-4.01,1.92-6.3c0-2.14-.44-3.91-1.31-5.31Z"/><polygon class="cls-14" points="338.65 693.76 145.32 688.09 338.65 682.42 338.65 693.76 338.65 693.76"/><polygon class="cls-14" points="1213.9 682.42 1407.23 688.09 1213.9 693.76 1213.9 682.42 1213.9 682.42"/><path d="M755.32,495.32c-98.5,0-170.23-18.97-199.24-28.17-2.02,4.68-6.66,7.9-12.1,7.9-2.09,0-4.18-.51-6.04-1.47-6.81-3.52-9.69-10.49-10.84-16.81-8.21-.49-17.6-1.11-20.28-1.57-6.05-1.03-10.79-5.5-12.67-11.95-.65-2.23-.12-6.61.36-8.75l-.11-.1c-4.39-4.08-6.85-12.39-6.47-18.34,1.26-19.85,8.21-27.55,14.17-34.42,4.61-5.31,11.33-8.36,18.43-8.36.48,0,.96.01,1.44.04l2.53.15c3.16-20.91,11.96-52.59,35.08-86.3,38.74-56.5,96.42-75.48,105.23-77.85.81-.22,1.55-.62,2.18-1.17l2.43-2.14c1.42-1.25,3.05-2.2,4.83-2.82,7.92-2.78,32-10,68.4-10,41.74,0,70.62,9.98,76.77,12.3.79.3,1.46.85,1.91,1.56l.89,1.4c.22.35.53.64.9.83,7.15,3.76,64.29,16.14,109.67,81.13,23.31,33.38,32.43,69.09,35.09,87.07,1.21-.03,2.51-.05,3.87-.06,7.89,0,14.93,3.24,20.45,9.37,12.05,13.38,12.69,31.2,10.55,40.58-3.48,15.27-11.3,26.91-37.18,33.65-1.14,5.82-4.1,11.98-11.82,12.68l-.51.05h-.62c-1.56,0-5.19-.35-8.47-3.25-23.1,7.54-87.11,24.82-188.83,24.82Z"/><path class="cls-46" d="M755.15,202.99v209.09c-5.2-.02-10.53-.05-15.99-.1-51.11-.5-94-5.01-127.12-10.26-29.96-110.96,27.81-160.26,30.69-162.64.03-.03.06-.05.08-.06.02-.02.03-.02.03-.02,7.18-4.89,12.91-8.18,16.17-9.95-3.95,18.6-4.46,39.86-4.46,48.08,0,9.45,4.31,17.24,11.6,17.24s9.85-8.7,8.49-12.27c-5.62-14.91-9.35-48.6,1.91-69.42,0,0,23.74-10,66.09-10,4.36,0,8.52.1,12.49.29Z"/><path class="cls-17" d="M612.04,401.73c-12.04-1.9-22.8-3.91-32.18-5.85-.7-.15-1.38-.29-2.04-.42-1.56-.32-3.06-.65-4.54-.97-.94-.19-1.86-.41-2.79-.62-1.67-.37-3.26-.75-4.81-1.1-1.99-.47-3.89-.92-5.69-1.36-1.41-.34-2.77-.68-4.07-1-1.83-.47-3.65-.94-5.43-1.43.41-4.05.92-8.02,1.54-11.89.32-2.03.66-4.02,1.05-6,.32-1.69.66-3.37,1.04-5.02.6-2.77,1.25-5.51,1.98-8.18,4.03-15.28,9.69-29.1,16.32-41.53.99-1.83,1.98-3.63,3-5.4.62-1.07,1.23-2.12,1.86-3.18.94-1.57,1.91-3.14,2.88-4.67.53-.86,1.1-1.72,1.65-2.58,1.09-1.65,2.19-3.26,3.31-4.84.55-.81,1.12-1.6,1.68-2.4,2.84-3.92,5.75-7.68,8.7-11.25.02-.02.03-.03.05-.06,1.73-2.11,3.5-4.15,5.28-6.14.62-.7,1.23-1.38,1.85-2.06,1.18-1.28,2.37-2.53,3.53-3.76,1.2-1.25,2.4-2.48,3.6-3.66,1.78-1.78,3.57-3.52,5.35-5.17,4.16-3.91,8.28-7.45,12.22-10.66,1.07-.88,2.14-1.72,3.19-2.54,4.34-3.4,8.44-6.37,12.15-8.9-2.88,2.38-60.65,51.67-30.69,162.64Z"/><path class="cls-42" d="M993.31,419.28c-2.01,1.64-5.85,4.39-11.52,6.76-37.03,14.1-77.58,19.53-77.58,19.53v-14.13c-31.84,7.39-57.15,11.88-145.38,11.88-162.22,0-229.61-27.55-229.61-27.55,0,0,1.43,9.45-2.27,10.68-6.29,2.11-22.88-8.52-27.4-11.54,2.01-13.06,7.16-21.26,11.13-25.83,2.64-3.05,6.6-4.67,10.63-4.42l2.51.15c36.51,12.78,108.82,31.87,214.86,31.87,37.98,0,69.42-1.2,95.26-3.03,1.77-.13,3.55-.24,5.33-.39,1.12-.08,2.2-.18,3.29-.26.32-.03.63-.05.96-.08,1.26-.1,2.51-.19,3.74-.31,1.2-.1,2.41-.21,3.63-.31,1.39-.13,2.79-.26,4.18-.39.71-.06,1.44-.13,2.17-.21,1.99-.19,3.94-.39,5.85-.6.84-.08,1.69-.18,2.54-.28,56.19-6.11,75.46-14.88,76.29-15.28l8.3-2.4s-.15-103.77-110.83-157.48t-.05-.02l-.02-.02s3.35,24.97,3.35,39.65-1.9,23.67-14.68,23.67-16.28-10.53-8-33.41c-.29,5.3-.79,9.32-1.04,11.62-.79,7.6-1.1,15.52,7.92,15.52s9.03-6.82,9.03-22.02c0-25.67-7.91-48.64-7.91-48.64,30.58,10.45,64.2,32.83,95.68,75.15,31.48,42.34,34.11,92.13,34.11,92.13,0,0,5.56-.47,14.05-.55,13.63,0,19.64,16.84,21.47,30.53Z"/><path class="cls-17" d="M880.5,406.72c-28.66,3.03-69.21,5.46-125.35,5.36v-209.09c37.46,1.73,57.96,10.79,57.96,10.79,7.19,20.37,7.57,39.49,6.89,51.75-8.28,22.88-4.78,33.41,8,33.41s14.68-8.98,14.68-23.67-3.35-39.65-3.35-39.65l.02.02s.02,0,.05.02c110.69,53.72,110.83,157.48,110.83,157.48l-8.3,2.4c-.26.08-.52.18-.79.26-.57.19-1.17.39-1.75.57-.21.08-.44.15-.66.21-.24.06-.49.15-.76.23-.23.06-.45.15-.7.21-.23.06-.47.13-.73.21-7.84,2.22-24.95,6.21-56.03,9.5Z"/><path class="cls-6" d="M993.96,428.4c0,1.59-.06,3.01-.19,4.21-1.2,11.47-38.82,19.33-38.82,19.33,0,0,0,10.26-2.22,10.45-2.22.21-3.22-5.83-3.22-5.83,0,0-67.57,27.42-194.19,27.42s-209.19-32.25-209.19-32.25l-.31,10.21c-.03,1.34-1.47,2.17-2.67,1.56-6.35-3.27-5.3-17.48-5.3-17.48,0,0-25.36-1.34-29.12-1.99-2.2-.37-3.22-2.37-3.68-3.94-.31-1.09.26-2.22,1.31-2.61l2.54-.92c.53-.21.68-.91.26-1.3l-7.62-7.06c-1.86-1.73-2.87-4.21-2.71-6.74.08-1.28.19-2.51.32-3.71,7.52,5.91,18.62,13.35,25.88,16.01,43.75,16.24,118.69,33.36,230.17,33.36s147.96-10.66,185.16-18.91c37.2-8.25,53.59-19.8,53.59-19.8Z"/><path class="cls-17" d="M993.96,428.4s-16.38,11.55-53.59,19.8c-37.2,8.25-73.69,18.91-185.16,18.91s-186.42-17.13-230.17-33.36c-7.26-2.66-18.36-10.1-25.88-16.01.11-.97.24-1.91.39-2.84,4.52,3.01,21.11,13.64,27.4,11.54,3.69-1.23,2.27-10.68,2.27-10.68,0,0,67.39,27.55,229.61,27.55,88.23,0,113.54-4.49,145.38-11.88v14.13s1.02-.13,2.9-.42c.45-.08.96-.15,1.52-.24,2.09-.32,4.84-.79,8.17-1.39.71-.13,1.44-.26,2.2-.41.75-.15,1.52-.29,2.33-.44.65-.13,1.31-.26,2.01-.41,2.43-.47,5.04-1,7.79-1.6,1.38-.29,2.8-.62,4.25-.94.81-.19,1.64-.37,2.48-.57,3.55-.83,7.24-1.73,11.07-2.74.88-.24,1.77-.47,2.66-.71,2.59-.7,5.23-1.43,7.91-2.22.99-.28,1.98-.58,2.98-.89,1.69-.5,3.39-1.02,5.09-1.57,4.75-1.52,9.51-3.18,14.23-4.97,5.67-2.37,9.51-5.12,11.52-6.76.11.83.21,1.65.29,2.45.06.58.11,1.15.15,1.7.15,1.78.21,3.45.21,4.97Z"/><path class="cls-8" d="M993.96,428.4s-16.38,11.55-53.59,19.8c-37.2,8.25-73.69,18.91-185.16,18.91s-186.42-17.13-230.17-33.36c-7.26-2.66-18.36-10.1-25.88-16.01.11-.97.24-1.91.39-2.84,4.52,3.01,21.11,13.64,27.4,11.54,3.69-1.23,2.27-10.68,2.27-10.68,0,0,67.39,27.55,229.61,27.55,88.23,0,113.54-4.49,145.38-11.88v14.13s1.02-.13,2.9-.42c.45-.08.97-.15,1.52-.24,2.09-.32,4.84-.79,8.17-1.39.7-.13,1.44-.26,2.2-.41.75-.15,1.52-.29,2.33-.44.65-.13,1.31-.26,2.01-.41,2.43-.49,5.04-1.02,7.79-1.6,1.39-.31,2.8-.62,4.25-.94.81-.19,1.64-.37,2.48-.57,3.53-.83,7.24-1.73,11.07-2.74.88-.24,1.77-.47,2.66-.71,2.59-.7,5.23-1.43,7.91-2.22.99-.28,1.98-.58,2.98-.89,1.69-.5,3.39-1.02,5.09-1.57,4.75-1.52,9.51-3.18,14.23-4.97,5.67-2.37,9.51-5.12,11.52-6.76.11.83.21,1.65.29,2.45.06.58.11,1.15.15,1.7.15,1.78.21,3.45.21,4.97Z"/><path class="cls-22" d="M993.93,426.61c-14.79,6.76-95.05,39.93-240.72,37.71-97.94-1.51-181.92-15.39-225.9-33.23-.83-.34-1.05-1.39-.47-2.06l5.25-6.01c.34-.39.88-.55,1.38-.39,8.73,2.9,88.31,28.05,221.81,28.05,79.16,0,147.26-9.59,147.26-9.59l.02,7s48.6-5.12,91.13-25.5c.11,1.41.21,2.77.24,4.03Z"/><path class="cls-18" d="M967.57,431.01c-5.41,1.73-10.79,3.29-15.98,4.68l-.32-18.52c-71.18,26.48-196.11,23.32-196.11,23.32v-20.27s58.75.81,107.09-3.61c48.32-4.41,97.64-19.44,97.64-19.44l7.68,33.85Z"/><path class="cls-37" d="M941.93,395.54c-.83.41-20.09,9.17-76.29,15.28-.86.1-1.7.19-2.54.28-1.91.21-3.86.41-5.85.6-.73.08-1.46.15-2.17.21-1.39.13-2.79.26-4.18.39-1.22.1-2.43.21-3.63.31-1.23.11-2.48.21-3.74.31-.32.03-.63.05-.96.08-1.09.08-2.17.18-3.29.26-1.78.15-3.56.26-5.33.39-25.84,1.83-57.28,3.03-95.26,3.03-106.04,0-178.35-19.09-214.86-31.87l10.27.6s.05-.42.15-1.2l.05.02c.62.21,6.16,2.09,16.2,4.76,1.78.49,3.6.96,5.43,1.43,1.3.32,2.66.66,4.07,1,1.88.47,3.76.92,5.69,1.36,1.56.36,3.14.73,4.81,1.1.92.21,1.85.42,2.79.62,1.47.32,2.98.65,4.54.97.66.13,1.35.28,2.04.42,9.38,1.94,20.14,3.95,32.18,5.85,33.12,5.25,76.01,9.75,127.12,10.26,5.46.05,10.79.08,15.99.1,56.15.1,96.69-2.33,125.35-5.36,31.08-3.29,48.19-7.28,56.03-9.5.26-.08.5-.15.73-.21.24-.06.47-.15.7-.21.28-.08.52-.16.76-.23.23-.06.45-.13.66-.21.58-.18,1.18-.37,1.75-.57.28-.08.53-.18.79-.26Z"/><path class="cls-42" d="M661.02,220.96c-.76,2.61-1.43,5.33-2.01,8.1-3.26,1.77-8.99,5.06-16.17,9.95,0,0-.02,0-.03.02-.02.02-.05.03-.08.06-3.71,2.53-7.81,5.49-12.15,8.9-1.05.83-2.12,1.67-3.19,2.54-3.94,3.21-8.05,6.76-12.22,10.66-1.78,1.65-3.56,3.39-5.35,5.17-1.2,1.18-2.4,2.41-3.6,3.66-1.17,1.23-2.35,2.48-3.53,3.76-.62.68-1.23,1.36-1.85,2.06-1.78,1.99-3.55,4.03-5.28,6.14-.02.03-.03.05-.05.06-2.95,3.56-5.87,7.32-8.7,11.25-.57.79-1.13,1.59-1.68,2.4-1.12,1.59-2.22,3.19-3.31,4.84-.55.86-1.12,1.72-1.65,2.58-.97,1.52-1.94,3.09-2.88,4.67-.63,1.05-1.25,2.11-1.86,3.18-1.02,1.77-2.03,3.56-3,5.4-6.63,12.43-12.28,26.25-16.32,41.53-.73,2.67-1.38,5.41-1.98,8.18-.37,1.65-.71,3.34-1.04,5.02-.39,1.98-.73,3.97-1.05,6-.62,3.87-1.13,7.84-1.54,11.89-10.05-2.67-15.59-4.55-16.2-4.76l-.05-.02c1.05-7.96,8.2-53.97,36.64-92.46,39.44-53.39,90.14-70.78,90.14-70.78Z"/><path class="cls-17" d="M600.84,275.85c-1.77,1.98-3.53,4.03-5.28,6.14,1.73-2.11,3.5-4.15,5.28-6.14Z"/><path class="cls-24" d="M612.04,401.73c-12.04-1.9-22.8-3.91-32.18-5.85-.7-.15-1.38-.29-2.04-.42-1.56-.32-3.06-.65-4.54-.97-.94-.19-1.86-.41-2.79-.62-1.67-.37-3.26-.75-4.81-1.1-1.99-.47-3.89-.92-5.69-1.36-1.41-.34-2.77-.68-4.07-1-1.83-.47-3.65-.94-5.43-1.43.41-4.05.92-8.02,1.54-11.89.32-2.03.66-4.02,1.05-6,.32-1.69.66-3.37,1.04-5.02.6-2.77,1.25-5.51,1.98-8.18,4.03-15.28,9.69-29.1,16.32-41.53.99-1.83,1.98-3.63,3-5.4.62-1.07,1.23-2.12,1.86-3.18.94-1.57,1.91-3.14,2.88-4.67.53-.86,1.1-1.72,1.65-2.58,1.09-1.65,2.19-3.26,3.31-4.84.55-.81,1.12-1.6,1.68-2.4,2.84-3.92,5.75-7.68,8.7-11.25.02-.02.03-.03.05-.06,1.75-2.11,3.52-4.16,5.28-6.14.62-.7,1.23-1.38,1.85-2.06,1.18-1.28,2.37-2.53,3.53-3.76,1.2-1.25,2.4-2.48,3.6-3.66,1.78-1.78,3.57-3.52,5.35-5.17,4.16-3.91,8.28-7.45,12.22-10.66,1.07-.88,2.14-1.72,3.19-2.54,4.34-3.4,8.44-6.37,12.15-8.9-2.88,2.38-60.65,51.67-30.69,162.64Z"/><path class="cls-17" d="M565.68,392.77c-1.99-.47-3.89-.92-5.69-1.36,1.88.47,3.76.92,5.69,1.36Z"/><path class="cls-39" d="M950.23,393.14l-8.3,2.4c-16.98-105.05-99.95-158.25-102.54-159.88,110.69,53.72,110.83,157.48,110.83,157.48Z"/><path class="cls-34" d="M941.93,395.54c-.26.08-.52.18-.79.26-.57.19-1.17.39-1.75.57-.21.08-.44.15-.66.21-.24.06-.49.15-.76.23-.23.06-.45.15-.7.21-.23.06-.47.13-.73.21-7.84,2.22-24.95,6.21-56.03,9.5,2.69-6.76,9.84-27.27,10.05-54.66.28-37.28-16.04-80.53-51.2-116.42t.05.02c2.59,1.64,85.56,54.83,102.54,159.88Z"/><path class="cls-29" d="M764.76,390.18l-9.61-6.63v-180.56c37.46,1.73,57.96,10.79,57.96,10.79,7.19,20.37,7.57,39.49,6.89,51.75-8.28,22.88-4.78,33.41,8,33.41s14.68-8.98,14.68-23.67c14.41,99.65-77.92,114.9-77.92,114.9Z"/><path class="cls-35" d="M890.55,352.07c-.21,27.38-7.36,47.9-10.05,54.66-28.66,3.03-69.21,5.46-125.35,5.36v-35.13l7.34,8.86,3.47,4.13s2.35-.51,3.76-.87c18.99-4.89,85.32-28.22,72.95-113.79,0-14.68-3.35-39.65-3.35-39.65l.02.02c35.16,35.89,51.48,79.14,51.2,116.42Z"/><path class="cls-9" d="M529.87,412.75l4.43-20.66s74.47,30.99,220.86,28.13v20.27c-79.74.52-167.63-6.62-225.28-27.73Z"/><path class="cls-36" d="M904.21,429.64s28.47-5.24,47.06-12.47l.32,18.52s-9.91,2.8-24.29,5.76c-6.88,1.42-14.69,3.03-23.09,4.11v-15.92Z"/><path class="cls-4" d="M762.49,385.81s-43-51.74-51.2-62.9l40.34-.07-30.78-50.11,71.29,2.44-12.32,60.79c-.51,2.5-2.46,4.45-4.96,4.96l-16.58,3.33,4.2,41.56Z"/><path class="cls-21" d="M759.91,374.85c-10.58-12.78-30.73-36.31-40.29-48.45l37.8-.32-28.63-48.83,58.17,1.77-10.31,56.31c-.25,1.23-1.2,2.18-2.43,2.42l-18.38,4.16,4.07,32.94Z"/><rect class="cls-10" x="208.58" y="519.68" width="27.81" height="44.78"/><rect class="cls-2" x="142.56" y="519.68" width="28.23" height="44.78"/><path class="cls-30" d="M236.39,564.47v10.53c0,14.84-4.13,26.3-12.4,34.37-8.28,8.09-19.78,12.12-34.51,12.12s-26.23-4.03-34.51-12.12c-8.26-8.07-12.4-19.53-12.4-34.37v-10.53h28.23v9.69c0,8.56,1.69,14.68,5.07,18.39,3.37,3.71,8,5.56,13.9,5.56s10.5-1.85,13.82-5.56c3.32-3.71,4.99-9.84,4.99-18.39v-9.69h27.81Z"/><polygon class="cls-1" points="269.18 519.68 245.94 519.68 245.94 564.46 306.28 564.46 269.18 519.68"/><rect class="cls-45" x="313.25" y="519.68" width="27.66" height="44.78"/><polygon class="cls-33" points="340.9 564.47 340.9 619.5 317.66 619.5 273.61 566.3 273.61 619.5 245.95 619.5 245.95 564.47 306.27 564.47 313.24 572.88 313.24 564.47 340.9 564.47"/><path class="cls-49" d="M454.04,564.47h-28.63c-.52-3.65-1.57-6.89-3.21-9.71-2.38-4.08-5.69-7.21-9.92-9.35s-9.2-3.21-14.91-3.21h-17.82v22.26h-28.23v-44.79h47.2c11.02,0,20.72,2.04,29.09,6.13,8.36,4.1,14.89,9.85,19.61,17.26,3.9,6.16,6.16,13.29,6.82,21.41Z"/><path class="cls-38" d="M454.28,569.59c0,10.18-2.37,18.99-7.07,26.44-4.72,7.47-11.25,13.24-19.61,17.34-8.36,4.08-18.07,6.13-29.09,6.13h-47.2v-55.03h28.23v32.5h17.82c5.7,0,10.68-1.07,14.91-3.21s7.54-5.28,9.92-9.41c2.37-4.13,3.56-9.06,3.56-14.76,0-1.8-.13-3.5-.36-5.12h28.63c.15,1.67.24,3.37.24,5.12Z"/><polygon class="cls-32" points="487.49 558.32 487.49 541.5 537.83 541.5 537.83 519.68 459.55 519.68 459.55 564.46 531.84 564.46 531.84 558.32 487.49 558.32"/><polygon class="cls-41" points="459.55 619.5 539.68 619.5 539.68 597.68 487.49 597.68 487.49 579.43 531.84 579.43 531.84 564.46 459.55 564.46 459.55 619.5"/><path class="cls-26" d="M637.79,619.5h-30.24l-18.08-26.53h-15.43v26.53h-28.23v-55.03h28.23v6.69h15.69c5.9,0,10.29-1.28,13.19-3.86.96-.84,1.73-1.78,2.37-2.84h29.77c-.83,4.28-2.38,8.15-4.68,11.6-3.39,5.14-8.12,9.12-14.15,11.99l21.57,31.44Z"/><path class="cls-47" d="M635.79,556.61c0,2.75-.26,5.38-.75,7.86h-29.77c1.31-2.17,1.99-4.78,1.99-7.86,0-4.65-1.46-8.26-4.36-10.84-2.9-2.56-7.29-3.84-13.19-3.84h-15.69v22.54h-28.23v-44.79h45.63c9.12,0,17,1.47,23.59,4.42,6.61,2.95,11.72,7.19,15.33,12.75,3.61,5.57,5.43,12.15,5.43,19.75Z"/><path class="cls-27" d="M765.02,564.47c-.84,4.15-2.35,7.91-4.55,11.29-3.55,5.48-8.57,9.71-15.09,12.69-6.5,2.97-14.23,4.46-23.2,4.46h-17.11v25.93h-27.77v-54.36h27.77v6.34h15.43c5.8,0,10.13-1.28,12.98-3.82.83-.75,1.54-1.59,2.12-2.51h29.43Z"/><path class="cls-7" d="M765.8,556.35c0,2.85-.26,5.56-.78,8.12h-29.43c1.43-2.22,2.16-4.91,2.16-8.12,0-4.62-1.43-8.22-4.28-10.76s-7.18-3.82-12.98-3.82h-15.43v22.7h-27.77v-44.8h44.88c8.98,0,16.71,1.47,23.2,4.39,6.51,2.93,11.54,7.16,15.09,12.69,3.55,5.51,5.33,12.06,5.33,19.61Z"/><path class="cls-16" d="M860.05,556.35c0,2.87-.26,5.56-.78,8.12h-29.43c1.43-2.22,2.16-4.91,2.16-8.12,0-4.62-1.43-8.22-4.28-10.76-2.85-2.54-7.18-3.82-12.98-3.82h-15.43v22.7h-27.77v-44.8h44.88c8.98,0,16.71,1.47,23.2,4.39,6.5,2.93,11.54,7.16,15.09,12.69,3.55,5.51,5.33,12.06,5.33,19.61Z"/><path class="cls-12" d="M862.01,618.83h-29.73l-17.81-26.35h-15.15v26.35h-27.77v-54.36h27.77v6.34h15.43c5.8,0,10.13-1.28,12.98-3.82.83-.75,1.54-1.59,2.12-2.51h29.43c-.84,4.13-2.37,7.88-4.55,11.23-3.34,5.1-7.99,9.06-13.92,11.91l21.21,31.22Z"/><polygon class="cls-3" points="895.12 558.06 895.12 541.34 944.63 541.34 944.63 519.67 867.63 519.67 867.63 564.47 938.74 564.47 938.74 558.06 895.12 558.06"/><polygon class="cls-31" points="867.63 618.83 946.45 618.83 946.45 597.15 895.12 597.15 895.12 579.02 938.74 579.02 938.74 564.47 867.63 564.47 867.63 618.83"/><path class="cls-20" d="M998.42,559.19c-3.98-.85-7.62-1.68-10.94-2.48-3.32-.8-5.99-1.84-7.99-3.12-2.01-1.27-3.01-3-3.01-5.17,0-1.7.51-3.21,1.54-4.53,1.03-1.32,2.71-2.38,5.05-3.19,2.34-.8,5.42-1.2,9.26-1.2,4.3,0,8.74.64,13.33,1.91,4.58,1.27,9.21,3.19,13.89,5.74l8.56-20.82c-4.86-2.83-10.4-4.98-16.62-6.45-6.22-1.46-12.55-2.2-19.01-2.2-9.63,0-17.67,1.47-24.12,4.39-6.45,2.93-11.29,6.8-14.52,11.62-3.23,4.82-4.84,10.2-4.84,16.15,0,5.29,1.03,9.66,3.09,13.1.32.53.68,1.02,1.03,1.52h62.63c-1.72-.79-3.5-1.49-5.37-2.09-3.98-1.27-7.95-2.34-11.92-3.19Z"/><path class="cls-48" d="M960.06,571.3c3.27,2.13,6.89,3.85,10.87,5.17,3.97,1.32,7.95,2.41,11.92,3.26,3.97.85,7.6,1.7,10.87,2.55,3.27.85,5.94,1.94,8,3.26,2.06,1.32,3.09,3.12,3.09,5.38,0,1.61-.54,3-1.61,4.18-1.08,1.18-2.78,2.13-5.12,2.83-2.34.71-5.42,1.06-9.26,1.06-5.71,0-11.43-.92-17.18-2.76-5.75-1.84-10.82-4.18-15.22-7.01l-9.12,20.68c4.68,3.21,10.73,5.83,18.16,7.86,7.43,2.03,15.17,3.05,23.21,3.05,9.73,0,17.79-1.47,24.2-4.39,6.4-2.93,11.22-6.82,14.45-11.69,3.23-4.86,4.84-10.18,4.84-15.94,0-5.19-1.01-9.51-3.01-12.96-2.01-3.45-4.65-6.23-7.93-8.36-1.73-1.12-3.57-2.12-5.5-3.01h-62.63c1.9,2.74,4.2,5.04,6.97,6.83Z"/><path class="cls-43" d="M1081.45,559.19c-3.97-.85-7.62-1.68-10.94-2.48-3.32-.8-5.98-1.84-7.99-3.12-2.01-1.27-3.01-3-3.01-5.17,0-1.7.51-3.21,1.54-4.53,1.03-1.32,2.71-2.38,5.05-3.19,2.34-.8,5.42-1.2,9.26-1.2,4.3,0,8.74.64,13.33,1.91,4.58,1.27,9.21,3.19,13.89,5.74l8.56-20.82c-4.86-2.83-10.4-4.98-16.62-6.45-6.22-1.46-12.55-2.2-19.01-2.2-9.63,0-17.67,1.47-24.12,4.39-6.45,2.93-11.29,6.8-14.52,11.62-3.23,4.82-4.84,10.2-4.84,16.15,0,5.29,1.03,9.66,3.08,13.1.32.53.68,1.02,1.03,1.52h62.62c-1.72-.79-3.5-1.49-5.37-2.09-3.98-1.27-7.95-2.34-11.92-3.19Z"/><path class="cls-28" d="M1043.09,571.3c3.27,2.13,6.89,3.85,10.87,5.17,3.97,1.32,7.95,2.41,11.92,3.26,3.97.85,7.6,1.7,10.87,2.55,3.27.85,5.94,1.94,8,3.26,2.06,1.32,3.08,3.12,3.08,5.38,0,1.61-.54,3-1.61,4.18-1.08,1.18-2.78,2.13-5.12,2.83-2.34.71-5.42,1.06-9.26,1.06-5.71,0-11.43-.92-17.18-2.76-5.75-1.84-10.82-4.18-15.22-7.01l-9.12,20.68c4.68,3.21,10.73,5.83,18.16,7.86,7.43,2.03,15.17,3.05,23.21,3.05,9.73,0,17.79-1.47,24.2-4.39,6.4-2.93,11.22-6.82,14.45-11.69,3.23-4.86,4.84-10.18,4.84-15.94,0-5.19-1.01-9.51-3.01-12.96-2.01-3.45-4.65-6.23-7.93-8.36-1.73-1.12-3.57-2.12-5.5-3.01h-62.62c1.9,2.74,4.2,5.04,6.97,6.83Z"/><path class="cls-23" d="M1211.68,564.47v10.16c0,14.73-4.07,26.12-12.2,34.14-8.13,8.04-19.44,12.04-33.95,12.04s-25.8-4-33.93-12.04c-8.13-8.02-12.2-19.41-12.2-34.14v-10.16h27.76v9.32c0,8.49,1.67,14.58,4.99,18.26,3.32,3.69,7.87,5.53,13.68,5.53s10.32-1.83,13.59-5.53c3.27-3.68,4.91-9.77,4.91-18.26v-9.32h27.35Z"/><rect class="cls-19" x="1184.33" y="519.67" width="27.35" height="44.8"/><rect class="cls-40" x="1119.39" y="519.67" width="27.77" height="44.8"/><path class="cls-13" d="M1311.26,556.35c0,2.87-.26,5.56-.78,8.12h-29.43c1.43-2.22,2.16-4.91,2.16-8.12,0-4.62-1.43-8.22-4.28-10.76s-7.18-3.82-12.98-3.82h-15.43v22.7h-27.77v-44.8h44.88c8.98,0,16.71,1.47,23.22,4.39,6.5,2.93,11.52,7.16,15.07,12.69,3.55,5.51,5.33,12.06,5.33,19.61Z"/><path class="cls-25" d="M1313.23,618.83h-29.73l-17.79-26.35h-15.17v26.35h-27.77v-54.36h27.77v6.34h15.43c5.8,0,10.13-1.28,12.98-3.82.83-.75,1.54-1.59,2.12-2.51h29.43c-.84,4.13-2.37,7.88-4.55,11.23-3.34,5.1-7.99,9.06-13.92,11.91l21.21,31.22Z"/><polygon class="cls-15" points="1389.95 558.06 1346.33 558.06 1346.33 541.34 1395.84 541.34 1395.84 519.67 1318.84 519.67 1318.84 564.47 1389.95 564.47 1389.95 558.06"/><polygon class="cls-11" points="1346.33 579.02 1389.95 579.02 1389.95 564.47 1318.84 564.47 1318.84 618.83 1397.66 618.83 1397.66 597.15 1346.33 597.15 1346.33 579.02"/><path class="cls-44" d="M978.78,432.76c-6.79,2.49-13.68,4.71-20.61,6.78-6.93,2.08-13.89,4.04-20.9,5.84-7.01,1.77-14.06,3.42-21.14,4.9-7.07,1.54-14.19,2.8-21.33,3.98,7.11-1.33,14.21-2.69,21.27-4.24,7.07-1.52,14.09-3.22,21.09-5.03,7.01-1.76,13.98-3.67,20.92-5.71,6.93-2.06,13.84-4.18,20.68-6.52Z"/><path class="cls-5" d="M527.31,431.08c5.94,2.07,11.86,4.19,17.86,6.07,5.96,2.01,12,3.76,18.07,5.4-6.16-1.3-12.19-3.14-18.2-5.02-5.96-2.02-11.92-4.06-17.74-6.45Z"/></svg>